PathFileType	4	(X/Y/Z)	/Users/niels/Desktop/University/Third Semester/Perception and Action/Exam/Gymnastics Motion Tracking/Code for Gym Tracking/Analyzed Data/Webcam_Backflip/id7_2_trajectory_Sports2D/id7_2_trajectory_Sports2D_px_person00.trc
DataRate	CameraRate	NumFrames	NumMarkers	Units	OrigDataRate	OrigDataStartFrame	OrigNumFrames
29.810126582278482	29.810126582278482	8	22	m	29.810126582278482	39	158
Frame#	Time	Hip			RHip			RKnee			RAnkle			RBigToe			RSmallToe			RHeel			LHip			LKnee			LAnkle			LBigToe			LSmallToe			LHeel			Neck			Head			Nose			RShoulder			RElbow			RWrist			LShoulder			LElbow			LWrist		
		X1	Y1	Z1	X2	Y2	Z2	X3	Y3	Z3	X4	Y4	Z4	X5	Y5	Z5	X6	Y6	Z6	X7	Y7	Z7	X8	Y8	Z8	X9	Y9	Z9	X10	Y10	Z10	X11	Y11	Z11	X12	Y12	Z12	X13	Y13	Z13	X14	Y14	Z14	X15	Y15	Z15	X16	Y16	Z16	X17	Y17	Z17	X18	Y18	Z18	X19	Y19	Z19	X20	Y20	Z20	X21	Y21	Z21	X22	Y22	Z22
39	1.30828025477707	0.8721184522456127	-0.4396941450348288	0.0	0.8676154322548302	-0.4375438854407425	0.0	0.8666877684860917	-0.5471316732140182	0.0	0.8467998448647317	-0.6524732465109925	0.0	0.8667553529362173	-0.6947610968808592	0.0	0.8595579570897681	-0.6940970425225331	0.0	0.8367333261905682	-0.6673420480986755	0.0	0.8743020388802724	-0.43840450773374146	0.0	0.8748643780889194	-0.5491983426198951	0.0	0.8648983246388044	-0.6495602840245635	0.0	0.8879696314349114	-0.6837361176004219	0.0	0.8877337979423895	-0.6763486940945277	0.0	0.8539865719559391	-0.661778703785187	0.0	0.9097360870214127	-0.302781965215256	0.0	0.9386771192524735	-0.23408592375275047	0.0	0.9367154742664264	-0.26936126872877963	0.0	0.9066644124745457	-0.30421851589107723	0.0	0.953879867300147	-0.2557413875738477	0.0	0.9769368741932154	-0.1999018464151128	0.0	0.9120991685895009	-0.3099083896255645	0.0	0.9727229135212248	-0.2796629182007353	0.0	1.014615220074152	-0.23822651846741633	0.0
40	1.3418259023354564	0.8699294687744007	-0.4563358649031841	0.0	0.863522630956484	-0.4536661966200942	0.0	0.8590519483391209	-0.5639412315774804	0.0	0.8407004146024937	-0.6687300752631199	0.0	0.862144970170859	-0.7096924078139297	0.0	0.8529151005816753	-0.7089444021279507	0.0	0.8312603625151628	-0.6835782565998956	0.0	0.8740222531756949	-0.45546194040481525	0.0	0.8742713180867496	-0.5656062044778752	0.0	0.86752829060114	-0.6651396581230609	0.0	0.8880090379016228	-0.6968090280638168	0.0	0.8901481372266145	-0.6895898784576858	0.0	0.8573386479178244	-0.6774515100069075	0.0	0.9107076037475209	-0.31938312931873253	0.0	0.9401781704347797	-0.2530803257867099	0.0	0.937221250806672	-0.2872913609168899	0.0	0.908083867004225	-0.319978340719134	0.0	0.9532170415377487	-0.27041292024156816	0.0	0.9738763550983979	-0.2149251429943115	0.0	0.9120584534471707	-0.3247801893667753	0.0	0.9715632937031771	-0.2929430239752407	0.0	1.0122310140339446	-0.24994985215691676	0.0
41	1.3753715498938428	0.8677841398121773	-0.4768908656845761	0.0	0.8595090971223227	-0.4734771778930506	0.0	0.8513604893766795	-0.5846458409972812	0.0	0.8351910208693158	-0.6886949722476408	0.0	0.8578272680863914	-0.7270474114130848	0.0	0.84667600944866	-0.7263682371137757	0.0	0.8267043055808313	-0.7037010970051082	0.0	0.8738844740492218	-0.47651982670038984	0.0	0.8735173790934198	-0.5859036576056673	0.0	0.8693864818102546	-0.6845390959440548	0.0	0.8870941201666804	-0.713643029034468	0.0	0.8912728594234897	-0.7067832255426298	0.0	0.8600444976655809	-0.6967476270594529	0.0	0.91202464787435	-0.3404402663619253	0.0	0.9412556143794285	-0.2767788897322663	0.0	0.9379691172237389	-0.3095740806934397	0.0	0.9090840972870582	-0.3394894130707614	0.0	0.9516302608001139	-0.28874535716916705	0.0	0.9696154101386039	-0.23380549635271888	0.0	0.9131901547014791	-0.3438771243361719	0.0	0.9697249621411528	-0.31057072710966255	0.0	1.0078965343337565	-0.2656988676292237	0.0
42	1.4089171974522292	0.8658559315192652	-0.5011839283142797	0.0	0.8558765488747015	-0.4969752286992841	0.0	0.84433144680094	-0.6088348719851281	0.0	0.8302263227895711	-0.7116845410610704	0.0	0.8533959299613637	-0.7464109579131573	0.0	0.840676190611385	-0.7460149367568356	0.0	0.8228772450509076	-0.7268065602868977	0.0	0.8739008462579642	-0.5013607486200528	0.0	0.872485360758185	-0.6097027878111836	0.0	0.8695859435194722	-0.7073099827104314	0.0	0.8845931934925896	-0.7340713349639009	0.0	0.8902984734926053	-0.7276995371706725	0.0	0.8611528596197597	-0.7191182721981078	0.0	0.9133170109853466	-0.36536531981460324	0.0	0.9415932314182934	-0.30438327705775775	0.0	0.9385993953177769	-0.33560742058512916	0.0	0.909038742192595	-0.3625580024635898	0.0	0.9482423275546208	-0.31063328300555787	0.0	0.963579035815499	-0.2562831813119725	0.0	0.9153340636956969	-0.36713918078254926	0.0	0.9673078685868038	-0.3323857016911758	0.0	1.0013122011642583	-0.28533647495196224	0.0
43	1.4424628450106156	0.8642946868797436	-0.5284710222225406	0.0	0.8529148074363627	-0.5236224431142718	0.0	0.8386923334520798	-0.6355729402124138	0.0	0.8258192262005001	-0.736612153896837	0.0	0.84883331129934	-0.7673067890648313	0.0	0.8349450001556733	-0.7673639070092204	0.0	0.8195903061650249	-0.751463030496384	0.0	0.8740744553008029	-0.5291348225197664	0.0	0.8713186757060766	-0.636094571975843	0.0	0.8680246448122797	-0.7324429318225532	0.0	0.8805662920750892	-0.757173785069299	0.0	0.8872973819455944	-0.7513433883306243	0.0	0.860498767161202	-0.743539760510143	0.0	0.9140949604163959	-0.3929595753839476	0.0	0.9408930979038448	-0.3343481731674512	0.0	0.9387411091434799	-0.36407485867504474	0.0	0.9075443120262625	-0.3885568963222528	0.0	0.9424520900429707	-0.33554786545431187	0.0	0.9554729060830929	-0.2817040190717421	0.0	0.9179539464799995	-0.39390270629176105	0.0	0.9645640202775256	-0.35759065984322425	0.0	0.9928034131709721	-0.3083689728882167	0.0
44	1.476008492569002	0.8632183115454282	-0.5571708939126172	0.0	0.8508757756878151	-0.5520239509165366	0.0	0.8350447799930736	-0.6633421596914604	0.0	0.8221989713662264	-0.7621177549027389	0.0	0.8446808172647011	-0.789040585936761	0.0	0.829887267799027	-0.7896276355875502	0.0	0.8168648349078476	-0.776150337862557	0.0	0.8743904216810354	-0.5581453528790031	0.0	0.8703033607920718	-0.6635342816168605	0.0	0.8652201201476218	-0.7584756066226492	0.0	0.8756502340849582	-0.7815214058202653	0.0	0.8830103474412048	-0.776231659652626	0.0	0.8584993248217192	-0.7686935088530975	0.0	0.9139372996700783	-0.4214554691117725	0.0	0.9389646410122139	-0.36445373257292635	0.0	0.9380803894716583	-0.39295606133106886	0.0	0.90466421433096	-0.41624169223214735	0.0	0.9342288453965027	-0.3623606953797954	0.0	0.9454841127129238	-0.3087839138588876	0.0	0.9202760794143316	-0.4225559153069815	0.0	0.9618291039947139	-0.38453251142046674	0.0	0.9833925996030042	-0.33339667174564397	0.0
45	1.5095541401273884	0.8627521458902657	-0.58487738758416	0.0	0.8499008794965447	-0.5798517452489607	0.0	0.8337123783992518	-0.6900788468757527	0.0	0.819603956273538	-0.7865008510836786	0.0	0.8415352457589182	-0.8104381931136888	0.0	0.825879362396849	-0.8115199908357605	0.0	0.8147701435683299	-0.7993093450537797	0.0	0.8749329233785395	-0.5859654213237867	0.0	0.8697993416351022	-0.6898775946679487	0.0	0.8619204708045783	-0.7835119769794957	0.0	0.8707275512833774	-0.8052899033697353	0.0	0.8784267208404536	-0.8004771329945123	0.0	0.8557607335393828	-0.7929420653140893	0.0	0.9126917562984217	-0.44857582369694204	0.0	0.9357390190356393	-0.3920018006576318	0.0	0.9364027880636304	-0.41975026777599633	0.0	0.9008076339831644	-0.44365520338257314	0.0	0.9240575725110058	-0.3892582753190621	0.0	0.9342287599297792	-0.33556358647548645	0.0	0.9217202341715526	-0.4505419538424615	0.0	0.9595232726959556	-0.4108177372144009	0.0	0.9747137716167351	-0.3579968081375488	0.0
46	1.5430997876857748	0.8630092275929645	-0.6087868372004485	0.0	0.8499926018684055	-0.6042360214020895	0.0	0.8346393056483001	-0.7133453495816434	0.0	0.8179942236300703	-0.8076889340433725	0.0	0.8395959108599047	-0.8296980859441856	0.0	0.8229873517813515	-0.8311217600238976	0.0	0.8131538399295114	-0.8191926553144998	0.0	0.8758830657958091	-0.6098889564313612	0.0	0.8701243710440143	-0.7126534541544097	0.0	0.8587901718709062	-0.8052691666739388	0.0	0.8666899314849724	-0.82625326353582	0.0	0.8744454093001994	-0.8217695907807172	0.0	0.8527811536365725	-0.8142517775686622	0.0	0.910527703642046	-0.4717758343395902	0.0	0.9312571544620424	-0.4142988839526382	0.0	0.9336286709766092	-0.4419338327732743	0.0	0.8964517329697101	-0.46830426091256033	0.0	0.9126536434499615	-0.4139562328850214	0.0	0.9224643487805367	-0.3596916587432063	0.0	0.9222627376032946	-0.47486963144807576	0.0	0.9581087926529404	-0.43386981390788365	0.0	0.9686472056991733	-0.37952159282193904	0.0
